HIERARCHY
ROOT pelvis
{
  OFFSET 0 0 0
  CHANNELS 6 Xposition Yposition Zposition Zrotation Xrotation Yrotation
  JOINT pelvis_right_femur
  {
    OFFSET -11.43119 -3.542788 0.2090856
    CHANNELS 3 Zrotation Xrotation Yrotation
    JOINT right_femur_tibia
    {
      OFFSET -1.028693 -40.73281 5
      CHANNELS 3 Zrotation Xrotation Yrotation
      JOINT right_tibia_foot
      {
        OFFSET -0.5013517 -42.05707 -5
        CHANNELS 3 Zrotation Xrotation Yrotation
        End Site
        {
          OFFSET 0 -5 10
        }
      }
    }
  }
  JOINT pelvis_left_femur
  {
    OFFSET 11.43119 -3.542788 0.2090856
    CHANNELS 3 Zrotation Xrotation Yrotation
    JOINT left_femur_tibia
    {
      OFFSET 1.028693 -40.73281 5
      CHANNELS 3 Zrotation Xrotation Yrotation
      JOINT left_tibia_foot
      {
        OFFSET 0.3200228 -42.98253 -5
        CHANNELS 3 Zrotation Xrotation Yrotation
        End Site
        {
          OFFSET 0 -5 10
        }
      }
    }
  }
  JOINT pelvis_spine1
  {
    OFFSET 0 8.64413 -3.209807
    CHANNELS 3 Zrotation Xrotation Yrotation
    JOINT spine1
    {
      OFFSET 0 29.53957 -1.762685
      CHANNELS 3 Zrotation Xrotation Yrotation
      JOINT spine2
      {
        OFFSET 0 16.36153 -0.1422377
        CHANNELS 3 Zrotation Xrotation Yrotation
        JOINT neck
        {
          OFFSET 0 11.60093 5
          CHANNELS 3 Zrotation Xrotation Yrotation
          End Site
          {
            OFFSET 0 20 0
          }
        }
      }
      JOINT right_manubrium
      {
        OFFSET -4.671311 15.89868 4
        CHANNELS 3 Zrotation Xrotation Yrotation
        JOINT right_clavicle
        {
          OFFSET -13.601 1.573642 -2.74176
          CHANNELS 3 Zrotation Xrotation Yrotation
          JOINT right_humerus
          {
            OFFSET -0.06331682 -27.72702 2.252146
            CHANNELS 3 Zrotation Xrotation Yrotation
            JOINT right_radius
            {
              OFFSET -0.5696302 -23.92083 0.4042105
              CHANNELS 3 Zrotation Xrotation Yrotation
              End Site
              {
                OFFSET 0 -15 0
              }
            }
          }
        }
      }
      JOINT left_manubrium
      {
        OFFSET 4.671311 15.89868 4
        CHANNELS 3 Zrotation Xrotation Yrotation
        JOINT left_clavicle
        {
          OFFSET 13.601 1.573642 -2.74176
          CHANNELS 3 Zrotation Xrotation Yrotation
          JOINT left_humerus
          {
            OFFSET 0.000209614 -29.01858 1.101395
            CHANNELS 3 Zrotation Xrotation Yrotation
            JOINT left_radius
            {
              OFFSET -0.2288314 -24.59216 1.790347
              CHANNELS 3 Zrotation Xrotation Yrotation
              End Site
              {
                OFFSET 0 -15 0
              }
            }
          }
        }
      }
    }
  }
}
MOTION
Frames: 11
Frame Time: 0.0416666666667
0.1469703 47.87751 0.01726627 -3.231192 -22.20341 -2.724055 -50.87134 -60.09875 -40.07659 -180 81.58707 -180 10.37412 3.081881 4.109821 63.68231 -48.31586 50.52003 -180 71.60189 -180 -7.259653 -7.855813 -12.19659 -1.58818 18.6011 -1.178369 9.915337 14.30447 -11.48046 -11.73317 6.668695 6.922485 12.41585 -25.75669 -2.243935 18.65047 -11.20115 24.84485 -62.36563 -30.09601 10.9368 0 -70.44331 0 1.424459 -23.83447 -7.611373 -26.96598 -34.03791 -6.616986 52.2205 -24.58956 -32.30366 0 -75.31799 0 -19.93908 -0.02328164 -12.49055
0.1450906 47.87406 0.04645635 -3.167234 -22.1072 -2.694106 -51.14965 -60.13793 -40.29862 -180 81.54474 -180 10.3758 3.068859 4.157272 63.55586 -48.52414 50.40892 -180 71.56096 -180 -7.269298 -7.892812 -12.05054 -1.522853 18.8269 -1.135447 10.01821 14.46693 -11.54834 -11.82376 6.990896 5.409962 12.73859 -25.22836 -4.74369 18.5848 -12.52474 24.34367 -63.87028 -28.57019 9.273049 0 -69.63339 0 0.7854459 -24.52202 -7.604668 -26.78656 -34.27466 -5.278439 53.03964 -23.54691 -31.79227 0 -75.8129 0 -20.41999 1.612311 -15.46051
0.1464326 47.89783 0.05443147 -3.119776 -22.00241 -2.524667 -51.4147 -60.05472 -40.57107 -180 81.54589 -180 10.39414 3.02443 4.147862 63.40843 -48.82533 50.29524 -180 71.56946 -180 -7.26293 -7.906132 -11.92882 -1.31168 19.11129 -0.9800636 10.05384 14.63369 -11.61442 -11.90754 7.388484 3.897332 13.12598 -24.78609 -7.241681 18.38393 -14.2348 23.87953 -65.60642 -26.90408 7.312331 0 -67.9493 0 0.1223768 -25.02616 -7.596054 -26.61338 -34.48248 -3.915645 53.80865 -22.40093 -31.27234 0 -75.77866 0 -20.66581 3.483691 -18.33179
0.2716731 47.99649 0.07955323 -3.15182 -21.83821 -2.198956 -51.74267 -59.80749 -40.84301 -180 81.6186 -180 10.40722 2.966101 4.098147 63.26294 -49.22692 50.28586 -180 71.60069 -180 -7.257324 -7.907559 -11.8588 -0.8150735 19.45833 -0.8465428 10.0463 14.76413 -11.68781 -12.01501 7.694181 2.573647 13.56889 -24.51113 -9.479781 18.10416 -16.27294 23.49209 -67.47703 -25.10599 5.140156 0 -65.21294 0 -0.5425777 -25.28602 -7.608242 -26.57099 -34.59795 -2.676344 54.41197 -21.12774 -30.78728 0 -75.15765 0 -20.71971 5.428194 -21.00542
0.1713774 47.93817 0.05098535 -2.848868 -21.59755 -1.866939 -52.4121 -59.95297 -41.30056 -180 81.48303 -180 10.44605 2.854739 4.017568 63.25102 -49.55461 50.54057 -180 71.65951 -180 -7.257831 -7.874228 -11.87585 -0.8464248 19.92491 -0.3776601 9.857029 14.75558 -11.56187 -12.16184 7.890006 1.497571 14.03132 -24.33653 -11.39131 17.83255 -18.4867 23.26162 -69.25784 -23.26753 2.95514 0 -61.5155 0 -1.185818 -25.29299 -7.642092 -26.53808 -34.71354 -1.584884 54.83181 -19.8273 -30.25361 0 -74.22182 0 -20.56755 7.204561 -23.44475
0.1815261 47.96635 0.0833768 -2.66948 -21.38664 -1.469794 -52.91318 -59.91662 -41.57963 -180 81.39459 -180 10.4746 2.740316 3.916756 63.21805 -49.8331 50.79506 -180 71.72717 -180 -7.246107 -7.834622 -11.95131 -0.519614 20.2677 0.03574052 9.499894 14.75072 -11.34211 -12.43395 8.22782 0.6551793 14.45125 -24.23021 -13.031 17.60803 -20.70541 23.22977 -70.88484 -21.35306 0.8802405 0 -56.94263 0 -1.751404 -25.05638 -7.661862 -26.98083 -35.03126 -0.8513892 54.60649 -18.94481 -29.75686 0 -74.41296 0 -20.19932 8.417332 -25.77759
0.3153778 48.08432 0.1685174 -2.638703 -21.17721 -1.053721 -53.25823 -59.70295 -41.71601 -180 81.38341 -180 10.49327 2.639052 3.805649 63.17748 -50.07439 51.04391 -180 71.78558 -180 -7.233506 -7.803121 -12.05296 0.1817092 20.52975 0.2551412 9.057218 14.78346 -11.12096 -12.89316 8.648658 0.01145097 14.7571 -24.18391 -14.4594 17.46295 -22.83332 23.55125 -72.28005 -19.50669 -0.9731225 0 -51.73055 0 -2.184318 -24.59365 -7.632367 -27.65723 -35.34309 -0.5350617 53.90269 -18.53724 -29.57892 0 -75.44823 0 -19.79732 9.338128 -27.91561
0.219751 48.00446 0.2224677 -2.303539 -20.96066 -0.7903765 -53.88787 -59.93205 -42.04134 -180 81.16432 -180 10.52997 2.52395 3.71825 63.28301 -50.16663 51.48614 -180 71.80124 -180 -7.234404 -7.755602 -12.18114 0.359935 20.79559 0.5766438 8.564699 14.70428 -10.8323 -13.53798 8.951769 -0.4494363 14.87622 -24.1513 -15.67003 17.50132 -24.77521 24.38545 -73.31626 -17.93076 -2.510321 0 -46.24954 0 -2.482491 -23.97126 -7.517767 -28.10524 -35.51895 -0.7091078 53.12907 -18.52634 -29.79783 0 -76.62835 0 -19.49009 10.08046 -29.85669
0.2173511 47.97328 0.2653818 -2.118503 -20.74052 -0.6149657 -54.42859 -60.07402 -42.3502 -180 81.05148 -180 10.55206 2.454733 3.676598 63.43118 -50.2281 51.92243 -180 71.80909 -180 -7.242178 -7.72595 -12.27495 0.8042034 21.16497 0.624157 8.030363 14.62573 -10.45116 -14.21222 9.021027 -0.7429508 14.87026 -24.28493 -16.54081 17.66249 -26.61674 25.53877 -74.15286 -16.61587 -3.839804 0 -40.74748 0 -2.676388 -23.25359 -7.320109 -28.39481 -35.76704 -0.9562811 52.71639 -18.46936 -29.83497 0 -77.34306 0 -19.18126 10.72164 -31.49816
0.3389466 48.07297 0.3364657 -2.082159 -20.48545 -0.5291222 -54.88887 -60.05317 -42.69886 -180 81.07273 -180 10.55814 2.436446 3.699609 63.4702 -50.28009 52.24017 -180 71.83881 -180 -7.255404 -7.715566 -12.31016 1.505205 21.42727 0.6421496 7.612562 14.71245 -10.10421 -14.83684 8.924144 -0.8777352 14.76319 -24.56903 -17.03657 17.94155 -28.39837 26.86768 -74.8872 -15.49566 -5.066499 0 -35.41927 0 -2.815998 -22.48668 -7.051829 -28.58197 -35.92707 -1.172336 52.52352 -18.32602 -29.87348 0 -77.93528 0 -18.92735 11.19212 -32.90768
0.2159271 48.04199 0.3410449 -1.713027 -20.17834 -0.5812026 -55.77372 -60.40043 -43.46296 -180 80.9558 -180 10.57362 2.420196 3.79705 63.51068 -50.26666 52.62626 -180 71.9322 -180 -7.284345 -7.69585 -12.3015 1.547283 21.64428 1.025132 7.276917 14.75321 -9.648048 -15.35712 8.705746 -0.7873623 14.57605 -24.84786 -17.08504 18.29894 -30.06312 28.17593 -75.48192 -14.51866 -6.197805 0 -30.52789 0 -2.984978 -21.73888 -6.737285 -28.43712 -36.07122 -1.358724 52.53849 -18.25934 -29.92174 0 -78.49491 0 -18.72615 11.50851 -34.11114
